<svg width="707" height="658" viewBox="0 0 707 658" fill="none" xmlns="http://www.w3.org/2000/svg">
<g id="Group 2">
<g id="Group" opacity="0.7">
<path id="Vector" opacity="0.7" d="M370.999 352.918L370.353 352.778V330.194C395.34 324.562 417.97 312.371 435.445 295.127C452.92 277.883 464.473 256.343 468.676 233.17H468.994C475.312 233.17 480.426 224.406 480.426 213.604C480.426 206.898 478.455 200.992 475.455 197.465C475.907 193.334 476.137 189.147 476.145 184.903C476.165 168.004 472.428 151.276 465.158 135.732C457.889 120.189 447.24 106.153 433.854 94.4751C432.016 86.1248 428.738 78.0937 424.141 70.6814C414.395 55.0121 398.178 38.7032 404.792 21.7149L361.976 25.7121L361.582 -0.0302528C348.222 2.15825 342.627 16.2886 334.698 26.3517C315.634 50.5551 277.373 53.9228 252.067 72.77C243.471 79.1756 224.132 98.6522 227.768 111.424C210.761 132.777 201.62 158.505 201.662 184.903C201.662 189.14 201.892 193.327 202.352 197.465C199.352 200.992 197.381 206.898 197.381 213.604C197.381 224.416 202.505 233.17 208.813 233.17H209.13C213.333 256.343 224.887 277.883 242.362 295.127C259.837 312.371 282.467 324.562 307.454 330.194V352.778L306.808 352.918C292.069 351.349 143.319 340.987 175.94 564.234L195.946 631.548L200.403 631.388C200.987 638.141 204.169 644.489 209.387 649.307C214.606 654.125 221.524 657.104 228.917 657.715C236.31 658.326 243.702 656.531 249.784 652.648C255.867 648.764 260.248 643.042 262.152 636.494C290.481 636.404 322.478 636.324 338.805 636.324C355.132 636.324 387.184 636.414 415.458 636.494C417.331 643.076 421.704 648.837 427.798 652.751C433.893 656.664 441.311 658.476 448.733 657.863C456.154 657.249 463.096 654.251 468.321 649.403C473.545 644.554 476.714 638.17 477.261 631.388L481.718 631.548L501.725 564.234C534.499 340.987 385.738 351.349 370.999 352.918Z" fill="url(#paint0_linear)"/>
</g>
<path id="Vector_2" d="M706.968 624.733H0V646.598H706.968V624.733Z" fill="#E0E0E0"/>
<path id="Vector_3" d="M677.007 646.608H29.9603V655.552H677.007V646.608Z" fill="#E0E0E0"/>
<path id="Vector_4" opacity="0.1" d="M677.007 646.608H29.9603V649.586H677.007V646.608Z" fill="black"/>
<path id="Vector_5" opacity="0.1" d="M211.78 626.402C211.78 626.402 306.644 626.062 338.903 626.062C371.163 626.062 466.026 626.402 466.026 626.402V613.8H211.78V626.402Z" fill="black"/>
<path id="Vector_6" d="M466.037 623.873C466.037 623.873 371.174 623.534 338.914 623.534C306.655 623.534 211.791 623.873 211.791 623.873V464.642C211.791 433.876 225.183 404.37 249.021 382.614C272.859 360.858 305.19 348.634 338.903 348.632V348.632C355.598 348.63 372.13 351.63 387.555 357.46C402.979 363.289 416.994 371.834 428.8 382.607C440.606 393.38 449.97 406.169 456.36 420.245C462.749 434.32 466.037 449.407 466.037 464.642V623.873Z" fill="#6C63FF"/>
<path id="Vector_7" d="M326.869 290.631H350.96C355.827 290.631 360.495 292.396 363.937 295.537C367.379 298.678 369.313 302.938 369.313 307.38V353.678C369.313 361.036 366.11 368.092 360.409 373.294C354.708 378.496 346.976 381.419 338.914 381.419V381.419C330.852 381.419 323.12 378.496 317.419 373.294C311.719 368.092 308.516 361.036 308.516 353.678V307.38C308.516 302.938 310.45 298.678 313.891 295.537C317.333 292.396 322.001 290.631 326.869 290.631V290.631Z" fill="#FDB797"/>
<path id="Vector_8" opacity="0.1" d="M308.505 332.663C328.473 337.147 349.334 337.147 369.302 332.663V293.15H308.505V332.663Z" fill="black"/>
<path id="Vector_9" d="M338.914 310.807C412.177 310.807 471.567 256.608 471.567 189.75C471.567 122.892 412.177 68.693 338.914 68.693C265.652 68.693 206.261 122.892 206.261 189.75C206.261 256.608 265.652 310.807 338.914 310.807Z" fill="#333333"/>
<path id="Vector_10" d="M338.914 333.502C409.122 333.502 466.037 281.562 466.037 217.491C466.037 153.42 409.122 101.481 338.914 101.481C268.706 101.481 211.791 153.42 211.791 217.491C211.791 281.562 268.706 333.502 338.914 333.502Z" fill="#FDB797"/>
<path id="Vector_11" d="M254.969 81.3544C279.421 63.1368 316.411 59.889 334.841 36.485C342.506 26.7617 347.905 13.101 360.826 10.9825L361.209 35.8655L402.591 31.9881C396.207 48.3969 411.877 64.1961 421.294 79.3357C428.239 90.5335 432.035 103.127 432.343 115.991C417.976 123.865 400.16 115.271 384.161 110.684C368.612 106.227 352.088 105.768 335.793 105.348C327.438 105.128 318.985 104.928 310.827 106.597C303.676 108.066 296.985 110.934 290.218 113.522C279.213 117.729 244.456 133.599 234.229 123.366C222.643 111.764 245.529 88.3896 254.969 81.3544Z" fill="#333333"/>
<path id="Vector_12" opacity="0.1" d="M261.878 159.311C268.624 163.039 276.552 164.508 284.359 165.487C316.922 169.546 350.08 166.146 380.843 155.594C385.88 167.246 398.178 175.25 411.252 179.058C424.327 182.865 438.289 183.055 452.01 183.205C455.032 183.205 458.273 183.205 460.77 181.676C466.88 177.908 463.924 169.284 460.365 163.388L442.658 134.128C437.424 125.474 432.036 116.64 423.933 110.085C413.771 101.88 400.28 98.033 386.975 95.6046C355.528 89.895 323.062 90.8833 292.101 98.4926C259.009 106.617 216.5 134.248 261.878 159.311Z" fill="black"/>
<path id="Vector_13" d="M261.878 156.793C268.624 160.52 276.552 161.989 284.359 162.969C316.922 167.028 350.08 163.628 380.843 153.075C385.88 164.727 398.178 172.732 411.252 176.539C424.327 180.347 438.289 180.537 452.01 180.686C455.032 180.686 458.273 180.686 460.77 179.157C466.88 175.39 463.924 166.766 460.365 160.87L442.658 131.57C437.424 122.916 432.036 114.082 423.933 107.526C413.771 99.3221 400.28 95.4747 386.975 93.0464C355.528 87.3367 323.062 88.325 292.101 95.9344C259.009 104.089 216.5 131.72 261.878 156.793Z" fill="#333333"/>
<path id="Vector_14" d="M464.658 236.408C470.766 236.408 475.717 227.939 475.717 217.491C475.717 207.044 470.766 198.574 464.658 198.574C458.549 198.574 453.598 207.044 453.598 217.491C453.598 227.939 458.549 236.408 464.658 236.408Z" fill="#FDB797"/>
<path id="Vector_15" d="M213.171 236.408C219.279 236.408 224.231 227.939 224.231 217.491C224.231 207.044 219.279 198.574 213.171 198.574C207.063 198.574 202.111 207.044 202.111 217.491C202.111 227.939 207.063 236.408 213.171 236.408Z" fill="#FDB797"/>
<path id="Vector_16" d="M368.798 352.249C368.798 352.249 529.593 329.395 496.436 556.379L477.097 621.445L421.82 619.446C421.82 619.446 457.748 543.788 435.639 493.343C413.53 442.897 368.798 352.249 368.798 352.249Z" fill="#6C63FF"/>
<path id="Vector_17" d="M309.02 352.249C309.02 352.249 148.268 329.395 181.382 556.379L200.72 621.445L255.998 619.446C255.998 619.446 220.07 543.788 242.179 493.343C264.287 442.897 309.02 352.249 309.02 352.249Z" fill="#6C63FF"/>
<path id="Vector_18" opacity="0.1" d="M239.419 452.271C239.419 452.271 228.359 530.217 247.709 552.912Z" fill="black"/>
<path id="Vector_19" opacity="0.1" d="M438.399 454.269C438.399 454.269 449.458 530.217 430.109 552.912Z" fill="black"/>
<path id="Vector_20" d="M442.483 646.997C459.272 646.997 472.881 634.577 472.881 619.256C472.881 603.936 459.272 591.515 442.483 591.515C425.695 591.515 412.085 603.936 412.085 619.256C412.085 634.577 425.695 646.997 442.483 646.997Z" fill="#FDB797"/>
<path id="Vector_21" d="M235.335 646.997C252.123 646.997 265.733 634.577 265.733 619.256C265.733 603.936 252.123 591.515 235.335 591.515C218.546 591.515 204.936 603.936 204.936 619.256C204.936 634.577 218.546 646.997 235.335 646.997Z" fill="#FDB797"/>
<g id="Group_2" opacity="0.7">
<path id="Vector_22" opacity="0.7" d="M415.534 460.685H262.13C249.224 460.685 238.762 470.233 238.762 482.01V601.249C238.762 613.026 249.224 622.574 262.13 622.574H415.534C428.44 622.574 438.902 613.026 438.902 601.249V482.01C438.902 470.233 428.44 460.685 415.534 460.685Z" fill="url(#paint1_linear)"/>
</g>
<path id="Vector_23" d="M411.822 463.683H265.831C252.926 463.683 242.463 473.231 242.463 485.008V598.251C242.463 610.029 252.926 619.576 265.831 619.576H411.822C424.728 619.576 435.19 610.029 435.19 598.251V485.008C435.19 473.231 424.728 463.683 411.822 463.683Z" fill="#E0E0E0"/>
<g id="Group 1">
<path id="Vector_24" d="M303.955 540.911C303.916 542.349 304.112 543.784 304.536 545.169C305.001 546.354 305.561 547.506 306.211 548.616C306.446 548.943 306.575 549.324 306.583 549.715C306.552 550.009 306.445 550.293 306.272 550.543C306.099 550.792 305.864 551.002 305.587 551.154L302.302 553.153C301.902 553.415 301.426 553.565 300.933 553.583C300.334 553.547 299.772 553.308 299.356 552.913C298.651 552.22 298.02 551.467 297.473 550.665C296.947 549.855 296.378 548.946 295.852 547.837C294.004 549.937 291.653 551.624 288.981 552.769C286.309 553.914 283.386 554.486 280.434 554.442C276.054 554.442 272.517 553.293 269.943 550.995C267.299 548.359 265.907 544.874 266.074 541.304C266.24 537.733 267.95 534.369 270.83 531.948C274.028 529.459 278.277 528.21 283.675 528.21C285.537 528.223 287.395 528.35 289.238 528.59C291.176 528.83 293.169 529.209 295.272 529.639V526.142C295.272 522.504 294.429 519.966 292.808 518.487C291.187 517.008 288.296 516.288 284.256 516.288C282.348 516.288 280.447 516.496 278.594 516.908C276.667 517.328 274.775 517.872 272.933 518.537C272.335 518.78 271.721 518.986 271.093 519.156C270.82 519.237 270.537 519.284 270.25 519.296C269.516 519.296 269.155 518.817 269.155 517.817V515.469C269.098 514.888 269.227 514.305 269.527 513.79C269.923 513.356 270.426 513.014 270.995 512.791C273.086 511.842 275.291 511.117 277.565 510.632C280.237 510.006 282.987 509.7 285.745 509.723C291.987 509.723 296.553 511.012 299.488 513.6C302.422 516.188 303.868 520.106 303.868 525.372V540.911H303.955ZM282.668 548.186C284.506 548.168 286.33 547.878 288.066 547.327C289.992 546.718 291.71 545.661 293.049 544.259C293.895 543.376 294.506 542.326 294.834 541.191C295.195 539.827 295.371 538.428 295.359 537.024V535.025C293.767 534.673 292.155 534.403 290.53 534.216C288.896 534.026 287.25 533.929 285.603 533.926C282.087 533.926 279.514 534.546 277.784 535.845C276.472 536.715 275.505 537.95 275.028 539.365C274.551 540.78 274.59 542.297 275.14 543.69C275.689 545.083 276.719 546.275 278.075 547.088C279.43 547.9 281.038 548.289 282.657 548.196L282.668 548.186ZM324.783 553.353C324.077 553.419 323.369 553.249 322.79 552.873C322.243 552.355 321.864 551.708 321.695 551.005L309.376 514.03C309.137 513.409 308.979 512.765 308.905 512.111C308.879 511.952 308.893 511.791 308.946 511.638C308.999 511.485 309.09 511.345 309.212 511.229C309.333 511.113 309.483 511.025 309.648 510.97C309.813 510.915 309.989 510.895 310.164 510.912H315.3C316.024 510.831 316.756 511.002 317.348 511.392C317.894 511.911 318.273 512.557 318.443 513.26L327.203 544.949L335.383 513.26C335.49 512.557 335.839 511.903 336.379 511.392C337.01 511.039 337.744 510.871 338.482 510.912H342.676C343.417 510.84 344.162 511.01 344.778 511.392C345.327 511.897 345.678 512.554 345.775 513.26L354.064 545.328L363.142 513.26C363.322 512.561 363.699 511.916 364.237 511.392C364.847 511.038 365.564 510.87 366.285 510.912H371.158C371.336 510.889 371.518 510.903 371.69 510.955C371.861 511.007 372.016 511.095 372.144 511.211C372.271 511.328 372.367 511.47 372.424 511.626C372.481 511.782 372.498 511.948 372.472 512.111C372.458 512.37 372.422 512.627 372.362 512.881C372.279 513.29 372.154 513.691 371.99 514.08L359.353 551.055C359.198 551.762 358.817 552.412 358.258 552.923C357.666 553.27 356.968 553.438 356.265 553.403H351.754C351.013 553.475 350.268 553.305 349.651 552.923C349.103 552.397 348.754 551.725 348.655 551.005L340.53 520.136L332.448 550.955C332.326 551.669 331.98 552.335 331.452 552.873C330.831 553.246 330.089 553.415 329.349 553.353H324.783ZM392.172 554.642C389.45 554.646 386.738 554.357 384.09 553.783C381.994 553.393 379.965 552.747 378.057 551.864C377.384 551.573 376.82 551.107 376.436 550.525C376.231 550.103 376.123 549.647 376.118 549.186V546.747C376.118 545.748 376.534 545.268 377.323 545.268C377.643 545.268 377.961 545.316 378.265 545.408C378.582 545.508 379.053 545.698 379.579 545.888C381.432 546.633 383.366 547.196 385.35 547.567C387.404 547.946 389.495 548.137 391.591 548.136C394.258 548.281 396.916 547.734 399.257 546.558C400.11 546.087 400.812 545.418 401.291 544.619C401.77 543.821 402.009 542.921 401.983 542.011C402.002 541.395 401.887 540.782 401.644 540.208C401.402 539.633 401.037 539.108 400.571 538.663C399.036 537.474 397.223 536.623 395.271 536.175L387.616 534.016C383.784 532.917 380.958 531.288 379.228 529.13C377.543 527.144 376.623 524.706 376.611 522.194C376.567 520.34 377.054 518.508 378.024 516.878C378.96 515.337 380.249 513.998 381.802 512.951C383.443 511.82 385.299 510.976 387.277 510.462C389.412 509.902 391.626 509.63 393.847 509.653C395.022 509.644 396.196 509.708 397.362 509.843C398.567 509.983 399.673 510.182 400.768 510.372C401.863 510.562 402.815 510.852 403.757 511.142C404.518 511.358 405.252 511.646 405.947 512.001C406.566 512.286 407.106 512.696 407.524 513.2C407.865 513.666 408.03 514.22 407.995 514.779V517.028C407.995 518.027 407.579 518.557 406.79 518.557C406.092 518.485 405.416 518.292 404.797 517.987C401.627 516.707 398.19 516.07 394.723 516.118C392.309 515.988 389.9 516.45 387.748 517.457C386.948 517.892 386.294 518.519 385.86 519.27C385.425 520.021 385.226 520.867 385.284 521.715C385.27 522.35 385.403 522.982 385.675 523.567C385.947 524.153 386.351 524.679 386.861 525.112C388.564 526.344 390.529 527.239 392.632 527.74L400.078 529.899C403.856 530.998 406.582 532.527 408.203 534.496C409.804 536.423 410.652 538.783 410.612 541.201C410.638 543.125 410.17 545.029 409.243 546.757C408.311 548.394 407.004 549.829 405.411 550.965C403.678 552.194 401.699 553.104 399.585 553.643C397.155 554.323 394.626 554.66 392.084 554.642H392.172Z" fill="#252F3E"/>
<path id="Vector_25" d="M402.082 577.886C384.824 589.518 359.759 595.694 338.208 595.694C309.415 595.83 281.603 586.151 260.22 568.553C258.599 567.213 260.066 565.395 262.004 566.444C282.717 577.347 305.915 583.725 329.78 585.079C353.645 586.433 377.53 582.726 399.563 574.249C402.443 573.049 404.918 575.967 402.082 577.886V577.886Z" fill="#FF9900"/>
<path id="Vector_26" d="M409.265 570.441C407.075 567.853 394.69 569.192 389.073 569.822C387.397 570.011 387.134 568.672 388.657 567.663C398.512 561.347 414.719 563.166 416.613 565.275C418.507 567.383 416.087 582.263 406.856 589.258C405.444 590.358 404.075 589.788 404.666 588.349C406.801 583.642 411.466 572.969 409.265 570.441Z" fill="#FF9900"/>
</g>
</g>
<defs>
<linearGradient id="paint0_linear" x1="338.903" y1="657.99" x2="338.903" y2="-0.000289304" gradientUnits="userSpaceOnUse">
<stop stop-color="#808080" stop-opacity="0.25"/>
<stop offset="0.54" stop-color="#808080" stop-opacity="0.12"/>
<stop offset="1" stop-color="#808080" stop-opacity="0.1"/>
</linearGradient>
<linearGradient id="paint1_linear" x1="62166.1" y1="101318" x2="62166.1" y2="75091.6" gradientUnits="userSpaceOnUse">
<stop stop-color="#808080" stop-opacity="0.25"/>
<stop offset="0.54" stop-color="#808080" stop-opacity="0.12"/>
<stop offset="1" stop-color="#808080" stop-opacity="0.1"/>
</linearGradient>
</defs>
</svg>
