<svg width="896" height="530" viewBox="0 0 896 530" fill="none" xmlns="http://www.w3.org/2000/svg">
<g id="undraw_skateboard_d6or 1">
<g id="skating-board">
<path id="Vector" d="M361.872 435.088C349.098 432.754 336.934 427.838 326.124 420.641L327.306 419.028C337.891 426.063 349.8 430.863 362.305 433.133C381.237 436.535 409.566 434.865 437.012 407.606C490.426 354.558 541.405 349.215 541.914 349.168L542.1 351.16C541.599 351.207 491.332 356.477 438.422 409.026C416.809 430.49 394.63 436.428 376.704 436.428C371.73 436.424 366.767 435.975 361.872 435.088Z" fill="#2F2E41"/>
<path id="Vector_2" d="M515.153 393.113C521.78 393.113 527.153 387.74 527.153 381.113C527.153 374.485 521.78 369.113 515.153 369.113C508.525 369.113 503.153 374.485 503.153 381.113C503.153 387.74 508.525 393.113 515.153 393.113Z" fill="#2F2E41"/>
<path id="Vector_3" d="M430.153 449.113C436.78 449.113 442.153 443.74 442.153 437.113C442.153 430.485 436.78 425.113 430.153 425.113C423.525 425.113 418.153 430.485 418.153 437.113C418.153 443.74 423.525 449.113 430.153 449.113Z" fill="#2F2E41"/>
</g>
<g id="skating-man">
<path id="Vector_4" d="M407.648 44.4911C396.749 56.2389 425.246 84.7507 425.246 84.7507C425.246 84.7507 367.539 94.4812 372.118 93.8915C376.697 93.3018 374.324 44.76 374.324 44.76C374.324 44.76 418.548 32.7433 407.648 44.4911Z" fill="#ECBCB4"/>
<path id="Vector_5" d="M447.812 170.222L397.673 195.836L370.444 211.442C370.444 211.442 338.345 251.874 332.357 275.835C326.368 299.796 358.286 344.082 361.9 348.658C363.764 350.991 365.433 353.474 366.889 356.081C368.137 357.937 378.919 355.54 390.693 353.016C402.467 350.491 389.13 333.052 389.13 333.052C389.13 333.052 374.103 294.657 372.983 293.793C371.938 292.986 368.382 286.346 370.94 283.44C373.339 280.873 375.191 277.846 376.385 274.542C377.376 271.7 378.787 269.023 380.572 266.6C380.572 266.6 425.933 229.764 440.1 217.222C454.267 204.68 491.929 212.564 491.929 212.564C491.929 212.564 474.148 280.764 469.7 285.37C465.251 289.976 464.771 294.071 466.784 301.877C468.798 309.684 495.066 302.268 495.066 302.268L504.766 275.812C504.766 275.812 520.515 241.52 529.065 206.138C533.341 188.447 525.177 177.903 515.945 171.782C507.067 166.025 496.321 163.886 485.915 165.805L439.566 173.936L471.714 160.086L447.812 170.222Z" fill="#2F2E41"/>
<path id="Vector_6" d="M262.878 104.304L203.024 85.7979C203.024 85.7979 178.845 54.631 190.235 49.131C201.626 43.631 215.887 76.0752 215.887 76.0752L257.573 78.7727L262.878 104.304Z" fill="#ECBCB4"/>
<path id="Vector_7" d="M514.494 71.8997L567.706 38.832C567.706 38.832 583.2 2.55583 570.787 0.12136C558.374 -2.31311 552.799 32.6857 552.799 32.6857L513.157 45.8572L514.494 71.8997Z" fill="#ECBCB4"/>
<path id="Vector_8" d="M524.453 34.5131L525.467 73.7046L435.78 89.7296C448.972 117.954 445.621 150.076 478.827 164.156L366.903 218.9C371.89 175.862 351.085 143.444 331.64 103.141C307.954 94.5554 280.444 100.851 251.303 113.488L246.066 72.8233L369.945 63.9273L390.293 71.7066L412.112 62.5299C444.179 53.0024 490.221 34.8887 524.453 34.5131Z" fill="#6C63FF"/>
<path id="Vector_9" d="M468.64 300.63C465.92 302.997 463.388 322.48 463.29 329.55C463.193 336.621 472.502 338.447 477.589 338.8C482.676 339.153 482.067 342.256 485.426 344.848C488.784 347.441 499.822 347.027 514.316 342.136C528.81 337.245 504.563 321.21 502.452 320.474C500.34 319.738 491.452 297.692 491.452 297.692C491.452 297.692 471.36 298.263 468.64 300.63Z" fill="#2F2E41"/>
<path id="Vector_10" d="M389.368 345.12C392.599 346.72 399.985 364.926 401.871 371.741C403.757 378.556 395.214 382.681 390.382 384.312C385.551 385.942 386.926 388.79 384.334 392.148C381.741 395.507 370.959 397.904 355.699 396.844C340.439 395.785 359.832 374.13 361.687 372.883C363.543 371.636 366.556 348.058 366.556 348.058C366.556 348.058 386.137 343.52 389.368 345.12Z" fill="#2F2E41"/>
<path id="Vector_11" d="M389.471 59.4249C402.723 59.4249 413.467 48.6816 413.467 35.429C413.467 22.1765 402.723 11.4332 389.471 11.4332C376.218 11.4332 365.475 22.1765 365.475 35.429C365.475 48.6816 376.218 59.4249 389.471 59.4249Z" fill="#ECBCB4"/>
<path id="Vector_12" d="M361.734 33.0221C360.297 30.1554 359.48 27.0181 359.337 23.8146C359.193 20.611 359.726 17.4131 360.901 14.4293C363.26 8.61402 368.492 2.77363 379.774 1.02932C404.388 -2.7764 417.486 14.4647 416.798 20.1038C416.11 25.7429 412.805 39.3743 412.805 39.3743C412.805 39.3743 414.281 26.4681 407.947 26.0123C401.612 25.5565 377.045 23.634 370.824 30.1573C369.039 31.9291 367.755 34.1423 367.103 36.5716C366.452 39.001 366.455 41.5596 367.114 43.9871L361.734 33.0221Z" fill="#2F2E41"/>
</g>
</g>
</svg>
