<svg width="1058" height="785" viewBox="0 0 1058 785" fill="none" xmlns="http://www.w3.org/2000/svg">
<g id="undraw_Ride_a_bicycle_2yok 1">
<g clip-path="url(#clip0)">
<path id="Vector" d="M212.802 118.432C207.322 125.082 205.212 134.432 202.852 143.222C183.852 214.062 137.032 271.042 83.7121 311.742C61.1321 328.982 33.6421 352.102 38.5821 383.012C41.2421 399.612 52.9121 411.832 61.5821 425.352C79.7721 453.662 85.6721 492.142 77.0021 526.032C67.1421 564.592 39.5821 600.572 48.1121 639.562C53.3721 663.562 71.2321 680.642 88.4021 695.322C115.189 718.209 142.829 739.649 171.322 759.642C190.422 773.042 210.742 786.082 233.002 787.782C252.602 789.282 271.802 781.832 290.412 774.482C306.672 768.052 323.342 761.362 336.472 748.482C345.042 740.072 351.872 729.222 361.392 722.342C383.752 706.182 412.472 716.422 438.112 723.342C498.612 739.582 563.362 733.652 620.932 706.602C709.242 665.102 776.552 577.952 862.932 531.192C900.072 511.082 940.472 498.602 974.862 472.702C994.237 457.956 1010.89 439.938 1024.06 419.462C1050.06 379.352 1064.12 328.212 1060.06 278.152C1056 228.092 1033.25 179.852 997.522 151.592C959.272 121.342 910.962 115.692 867.442 97.5322C822.502 78.7721 782.522 46.5322 738.012 26.4022C701.996 10.1588 662.8 2.18501 623.3 3.06578C583.8 3.94656 544.998 13.6596 509.742 31.4922C461.302 55.9922 412.202 113.152 358.252 117.492C319.812 120.492 242.822 82.0122 212.802 118.432Z" fill="url(#paint0_linear)"/>
<g id="left-wheel">
<path id="Vector_2" d="M255.23 716.99L248.96 619.05L248.83 618.84L242.51 621.04L213.43 705.89L167.18 673.1L240.85 619.69L240.92 619.48L241.34 619.33L246.09 615.88L168.85 572.57L149.93 593.37L152.93 612.87L241.75 614.49V616.49L151.27 614.87L147.85 592.73L173.75 564.27L212.5 519.07L213.19 520.94L221.39 511.94L251.85 517.4V516.19L253.85 516.25V517.76L299.21 525.88L256.92 610.49L250.75 614.96V615.46V616.02L348.55 581.94L336.94 673.15L253.94 620.28L251.02 618.64L299.96 697.52L255.23 716.99ZM251.23 622.65L257.08 714.03L297.13 696.65L251.23 622.65ZM170.65 673.08L212.44 702.71L239.78 622.97L170.65 673.08ZM252.97 617.42L255.06 618.59L335.41 669.79L346.21 584.92L252.97 617.42ZM245.87 610.22L248.38 614.27L248.82 613.95L251.82 519.42L222.08 514.1L213.92 523.1L245.87 610.22ZM170.45 571.16L245.29 613.16L243.99 611.03L212.41 524.76L175.22 565.63L170.45 571.16ZM253.85 519.77L250.85 612.49L255.37 609.21L296.28 527.39L253.85 519.77Z" fill="#535461"/>
<path id="Vector_3" d="M364.92 589.95C360.91 572.131 352.79 555.495 341.21 541.37C336.911 536.121 332.171 531.25 327.04 526.81C307.314 509.779 282.491 499.779 256.467 498.381C230.443 496.983 204.692 504.265 183.254 519.085C161.816 533.904 145.906 555.422 138.02 580.262C130.134 605.102 130.719 631.857 139.683 656.328C148.647 680.799 165.482 701.601 187.547 715.47C209.612 729.339 235.657 735.488 261.595 732.954C287.533 730.42 311.895 719.345 330.858 701.468C349.822 683.591 362.312 659.923 366.37 634.18C367.314 628.119 367.789 621.994 367.79 615.86C367.797 607.144 366.834 598.454 364.92 589.95ZM249.73 704.3C231.498 704.281 213.714 698.647 198.797 688.164C183.879 677.682 172.552 662.859 166.356 645.712C160.16 628.565 159.395 609.926 164.165 592.329C168.935 574.732 179.009 559.031 193.018 547.361C207.026 535.692 224.288 528.619 242.457 527.106C260.627 525.593 278.821 529.712 294.567 538.904C310.312 548.096 322.845 561.914 330.46 578.48C338.076 595.045 340.405 613.554 337.13 631.49C333.38 651.933 322.58 670.414 306.611 683.718C290.642 697.021 270.514 704.304 249.73 704.3Z" fill="#535461"/>
<path id="Vector_4" d="M249.73 628.27C256.805 628.27 262.54 622.535 262.54 615.46C262.54 608.385 256.805 602.65 249.73 602.65C242.655 602.65 236.92 608.385 236.92 615.46C236.92 622.535 242.655 628.27 249.73 628.27Z" fill="#535461"/>
</g>
<g id="right-wheel">
<path id="Vector_5" d="M684.847 714.78L678.587 616.88L678.457 616.67L672.137 618.87L643.047 703.68L596.797 670.88L670.487 617.47L670.557 617.26L670.977 617.11L675.727 613.66L598.487 570.35L579.557 591.15L582.557 610.65L671.357 612.23V614.23L580.877 612.61L577.477 590.5L603.367 562.05L642.087 516.88L642.777 518.75L650.977 509.75L681.517 515.22V514.01L683.517 514.07V515.58L728.877 523.7L686.547 608.35L680.377 612.82V613.32V613.88L778.187 579.8L766.577 671.01L683.577 618.14L680.657 616.5L729.597 695.39L684.847 714.78ZM680.847 620.44L686.697 711.82L726.747 694.44L680.847 620.44ZM600.277 670.88L642.067 700.51L669.407 620.77L600.277 670.88ZM682.597 615.22L684.687 616.39L765.037 667.59L775.837 582.72L682.597 615.22ZM675.497 608.02L678.007 612.07L678.447 611.75L681.447 517.22L651.707 511.88L643.547 520.88L675.497 608.02ZM600.107 568.97L674.947 610.97L673.647 608.84L642.067 522.57L604.867 563.45L600.107 568.97ZM683.477 517.58L680.477 610.27L684.997 606.99L725.907 525.17L683.477 517.58Z" fill="#535461"/>
<path id="Vector_6" d="M679.757 496C669.144 495.988 658.578 497.415 648.347 500.24C643.071 501.695 637.904 503.523 632.887 505.71C606.157 517.297 584.674 538.387 572.594 564.898C560.514 591.41 558.697 621.459 567.492 649.233C576.287 677.008 595.071 700.533 620.209 715.259C645.348 729.984 675.054 734.863 703.582 728.952C732.109 723.04 757.431 706.759 774.648 683.257C791.865 659.755 799.754 630.702 796.789 601.72C793.823 572.738 780.215 545.885 758.595 526.356C736.975 506.828 708.881 496.012 679.747 496H679.757ZM679.357 702.09C659.076 702.082 639.408 695.137 623.62 682.407C607.831 669.678 596.872 651.931 592.562 632.113C588.252 612.295 590.851 591.599 599.928 573.463C609.004 555.326 624.011 540.84 642.457 532.41C647.149 530.262 652.021 528.532 657.017 527.24C669.229 524.07 681.977 523.537 694.411 525.678C706.845 527.818 718.681 532.581 729.13 539.652C739.58 546.722 748.404 555.937 755.015 566.683C761.627 577.429 765.873 589.46 767.473 601.975C769.073 614.49 767.989 627.202 764.293 639.265C760.598 651.329 754.375 662.467 746.04 671.939C737.704 681.41 727.447 688.998 715.951 694.196C704.455 699.395 691.984 702.086 679.367 702.09H679.357Z" fill="#535461"/>
<path id="Vector_7" d="M679.357 626.06C686.432 626.06 692.167 620.325 692.167 613.25C692.167 606.175 686.432 600.44 679.357 600.44C672.282 600.44 666.547 606.175 666.547 613.25C666.547 620.325 672.282 626.06 679.357 626.06Z" fill="#535461"/>
</g>
<g id="man">
<path id="Vector_8" d="M387 554.303L344.293 512.159L330.947 525.683L373.654 567.827L387 554.303Z" fill="#535461"/>
<path id="Vector_9" d="M354.48 491.99C354.48 491.99 379.27 478.91 388.85 470.49C394.617 465.444 400.818 460.917 407.38 456.96L438.48 438.03L503.48 433.03L506.48 444.03C506.48 444.03 511.48 460.03 461.48 474.03C411.48 488.03 386.48 510.03 386.48 510.03C386.48 510.03 354.48 520.99 354.48 491.99Z" fill="#DB8B8B"/>
<path id="Vector_10" opacity="0.1" d="M389.13 507.86C387.36 509.21 386.48 509.99 386.48 509.99C386.48 509.99 354.48 520.99 354.48 491.99C354.48 491.99 356.03 491.17 358.48 489.8C360.955 493.831 364.423 497.16 368.551 499.469C372.679 501.778 377.33 502.99 382.06 502.99H385.45L389.13 507.86Z" fill="black"/>
<path id="Vector_11" opacity="0.05" d="M505.54 449.55C502.76 455.44 493.17 465.12 461.48 473.99C420.87 485.36 396.75 501.99 389.13 507.86C387.36 509.21 386.48 509.99 386.48 509.99C386.48 509.99 354.48 520.99 354.48 491.99C354.48 491.99 356.03 491.17 358.48 489.8C365.91 485.73 381.64 476.8 388.82 470.45C394.586 465.403 400.787 460.875 407.35 456.92L438.45 437.99L450.03 437.1L503.45 432.99L506.45 443.99C506.45 443.99 507.15 446.14 505.54 449.55Z" fill="black"/>
<path id="Vector_12" d="M354.98 485.49L328.48 502.99L406.08 567.99C406.08 567.99 417.48 560.99 411.48 552.99C411.48 552.99 391.48 535.99 390.48 511.99L384.48 503.99H381.09C375.358 503.991 369.767 502.211 365.089 498.897C360.412 495.583 356.88 490.898 354.98 485.49Z" fill="#D1ABAB"/>
<path id="Vector_13" opacity="0.1" d="M505.54 449.55C489.54 441.82 450.48 440.99 450.48 440.99L450.06 437.1L503.48 432.99L506.48 443.99C506.48 443.99 507.15 446.14 505.54 449.55Z" fill="black"/>
<path id="Vector_14" d="M450.48 438.99C450.48 438.99 497.48 439.99 509.48 449.99L503.48 328.99H438.48L450.48 438.99Z" fill="#435FF3"/>
<path id="Vector_15" d="M488.24 364.95C488.24 364.95 605.89 360.95 608.29 376.16C610.69 391.37 490.64 384.96 490.64 384.96C490.64 384.96 481.04 375.35 488.24 364.95Z" fill="#535461"/>
<path id="Vector_16" opacity="0.05" d="M488.24 364.95C488.24 364.95 605.89 360.95 608.29 376.16C610.69 391.37 490.64 384.96 490.64 384.96C490.64 384.96 481.04 375.35 488.24 364.95Z" fill="black"/>
<path id="Vector_17" d="M393 425.78H372.19V606.66H393V425.78Z" fill="#488C88"/>
<path id="Vector_18" opacity="0.1" d="M393 425.77V439.7C386.08 440.6 379 441.17 372.19 441.39V425.77H393Z" fill="black"/>
<path id="Vector_19" d="M391.44 410.78C388.52 410.554 385.616 410.164 382.74 409.61C371.46 407.45 343.02 402.92 335.37 410.61C325.77 420.21 328.97 437.02 354.58 439.42C380.19 441.82 424.21 435.42 433.02 425.81C433.02 425.77 417.09 412.75 391.44 410.78Z" fill="#535461"/>
<path id="Vector_20" d="M387.4 475.4L605.9 407.37L613.1 424.18L389 501.01L387.4 475.4Z" fill="#488C88"/>
<path id="Vector_21" d="M452.23 582.65L609.9 427.38L618.7 440.18L468.23 597.05L452.23 582.65Z" fill="#488C88"/>
<path id="Vector_22" opacity="0.1" d="M653.58 529.85C648.584 531.142 643.712 532.872 639.02 535.02L629.46 508.31C634.477 506.123 639.644 504.295 644.92 502.84L653.58 529.85Z" fill="black"/>
<path id="Vector_23" d="M680.33 608.26L669.13 614.66L590.99 396.33L587.49 386.56L605.9 376.15L610.51 390.53L680.33 608.26Z" fill="#488C88"/>
<path id="Vector_24" opacity="0.1" d="M610.51 390.53L590.99 396.33L587.49 386.56L605.9 376.15L610.51 390.53Z" fill="black"/>
<path id="Vector_25" d="M491.44 407.37L601.09 369.75C601.09 369.75 620.3 372.15 613.09 388.16L502.65 420.97C502.65 420.97 485.85 422.57 491.44 407.37Z" fill="#535461"/>
<path id="Vector_26" opacity="0.1" d="M367.79 615.86C367.789 621.994 367.314 628.119 366.37 634.18C356.77 633.49 346.85 632.49 337.13 631.49C339.289 619.599 339.021 607.394 336.34 595.61C345.81 593.61 355.48 591.7 364.92 589.97C366.833 598.467 367.795 607.15 367.79 615.86Z" fill="black"/>
<path id="Vector_27" opacity="0.1" d="M393 585.38V606.65H372.19V588.65C379.39 587.4 386.39 586.29 393 585.38Z" fill="black"/>
<path id="Vector_28" d="M258.54 615.49C258.54 615.49 426.62 571.49 440.22 588.28C453.82 605.07 468.23 627.49 425.85 635.49C383.47 643.49 255.37 621.88 255.37 621.88L258.54 615.49Z" fill="#488C88"/>
<path id="Vector_29" opacity="0.1" d="M341.21 541.37L319.85 560.92C316.067 556.064 311.791 551.614 307.09 547.64L327.03 526.81C332.164 531.249 336.908 536.12 341.21 541.37Z" fill="black"/>
<path id="Vector_30" d="M252.94 606.66L378.59 475.4L382.6 505.81L259.34 618.66L252.94 606.66Z" fill="#488C88"/>
<path id="Vector_31" opacity="0.1" d="M251.34 628.27C258.415 628.27 264.15 622.535 264.15 615.46C264.15 608.385 258.415 602.65 251.34 602.65C244.265 602.65 238.53 608.385 238.53 615.46C238.53 622.535 244.265 628.27 251.34 628.27Z" fill="black"/>
<path id="Vector_32" opacity="0.1" d="M675.13 627.07C682.205 627.07 687.94 621.335 687.94 614.26C687.94 607.185 682.205 601.45 675.13 601.45C668.055 601.45 662.32 607.185 662.32 614.26C662.32 621.335 668.055 627.07 675.13 627.07Z" fill="black"/>
<path id="Vector_33" opacity="0.1" d="M448.22 628.27C462.364 628.27 473.83 616.804 473.83 602.66C473.83 588.516 462.364 577.05 448.22 577.05C434.076 577.05 422.61 588.516 422.61 602.66C422.61 616.804 434.076 628.27 448.22 628.27Z" fill="black"/>
<path id="Vector_34" d="M449.83 628.27C463.974 628.27 475.44 616.804 475.44 602.66C475.44 588.516 463.974 577.05 449.83 577.05C435.686 577.05 424.22 588.516 424.22 602.66C424.22 616.804 435.686 628.27 449.83 628.27Z" fill="#535461"/>
<path id="Vector_35" d="M442.992 600.736L442.984 600.742C439.977 602.991 439.362 607.253 441.611 610.26L461.937 637.441C464.186 640.448 468.448 641.063 471.455 638.814L471.463 638.808C474.471 636.559 475.085 632.297 472.836 629.29L452.51 602.109C450.261 599.102 446 598.487 442.992 600.736Z" fill="#6C63FF"/>
<path id="Vector_36" d="M565.48 246.99L563.1 277.1C562.826 280.914 562.876 284.744 563.25 288.55C563.56 291.92 563.25 297.82 559.95 306.82C555.713 318.317 553.523 330.467 553.48 342.72V376.99L530.48 372.99C530.48 372.99 531.48 324.99 527.48 316.99C523.48 308.99 530.48 237.99 530.48 237.99L565.48 246.99Z" fill="#DB8B8B"/>
<path id="Vector_37" opacity="0.05" d="M564.3 261.91L563.1 277.1C562.83 280.911 562.883 284.738 563.26 288.54C563.57 291.91 563.26 297.81 559.96 306.82C555.723 318.317 553.533 330.467 553.49 342.72V376.99L530.49 372.99C530.49 372.99 531.49 324.99 527.49 316.99C524.66 311.32 527.34 274.05 529.15 252.78C529.9 244.03 530.49 237.99 530.49 237.99L565.49 246.99L564.3 261.91Z" fill="black"/>
<path id="Vector_38" d="M451.5 476.99L442.85 526.19C441.759 532.759 440.086 539.218 437.85 545.49C432.78 559.35 436.02 578.78 438.48 589.38C439.57 594.06 440.48 597.02 440.48 597.02L414.48 611.02L406.48 605.02V601.02L405.48 512.02C399.48 498.02 401.48 477.02 405.48 469.02C406.617 466.392 407.417 463.63 407.86 460.8C409.86 450.08 410.48 435.02 410.48 435.02C410.48 435.02 426.48 408.02 445.48 426.02C452.48 432.65 455.14 441.32 455.7 449.62C456.68 463.83 451.5 476.99 451.5 476.99Z" fill="#DB8B8B"/>
<path id="Vector_39" opacity="0.1" d="M455.7 449.59C441.83 457.83 417.7 460.16 407.86 460.77C409.86 450.05 410.48 434.99 410.48 434.99C410.48 434.99 426.48 407.99 445.48 425.99C452.48 432.62 455.14 441.29 455.7 449.59Z" fill="black"/>
<path id="Vector_40" d="M489.48 424.99C478.846 430.653 468.797 437.352 459.48 444.99C443.48 457.99 403.48 458.99 403.48 458.99V443.99C404.48 425.99 387.48 405.99 364.48 349.99C349.79 314.23 353.86 293.99 358.72 283.99C361.48 278.34 364.48 275.99 364.48 275.99L489.48 299.99L493.95 313.39L503.48 341.99C503.48 341.99 468.48 343.99 462.48 346.99C456.48 349.99 460.48 376.99 460.48 376.99C454.48 404.99 489.48 424.99 489.48 424.99Z" fill="#435FF3"/>
<path id="Vector_41" opacity="0.1" d="M565.48 246.99L564.3 261.91C546.9 266.91 534.48 250.99 534.48 250.99C532.665 251.477 530.882 252.074 529.14 252.78C529.89 244.03 530.48 237.99 530.48 237.99L565.48 246.99Z" fill="black"/>
<path id="Vector_42" opacity="0.1" d="M493.95 313.39C493.48 318.06 493.48 320.99 493.48 320.99C493.48 320.99 470.48 339.99 431.48 310.99C392.48 281.99 357.48 289.99 357.48 289.99C357.48 289.99 357.89 287.67 358.72 283.99C361.48 278.34 364.48 275.99 364.48 275.99L489.48 299.99L493.95 313.39Z" fill="black"/>
<path id="Vector_43" d="M578.96 207.94C576.35 228.29 575.48 253.94 575.48 253.94C552.48 271.94 534.48 248.94 534.48 248.94C512.76 254.77 502.55 273.78 497.74 290.37C495.164 299.344 493.732 308.607 493.48 317.94C493.48 317.94 487.4 322.94 476.2 323.94C465.61 324.83 450.43 322.07 431.48 307.94C392.48 278.94 357.48 286.94 357.48 286.94C357.48 286.94 364.48 246.94 380.48 234.94C396.48 222.94 408.48 207.94 428.48 161.94C448.48 115.94 489.48 126.94 489.48 126.94C489.48 126.94 491.48 117.94 528.48 126.94C537.492 129.302 545.834 133.721 552.85 139.85C572.64 156.49 582.24 182.3 578.96 207.94Z" fill="#5C3838"/>
<path id="Vector_44" d="M541.85 149.49C541.8 150.82 541.69 152.3 541.51 153.95C539.51 171.95 537.51 169.95 515.51 173.95C501.83 176.44 494.72 165.01 491.3 156.01C490.062 152.75 489.128 149.382 488.51 145.95L536.51 137.95C536.51 137.95 542.26 136.34 541.85 149.49Z" fill="#DB8B8B"/>
<path id="Vector_45" opacity="0.05" d="M497.74 290.42C495.164 299.394 493.732 308.657 493.48 317.99C493.48 317.99 487.4 322.99 476.2 323.99C475.884 323.353 475.643 322.682 475.48 321.99C473.48 312.99 458.48 296.99 458.48 296.99C448.48 287.99 446.48 271.99 446.48 271.99L429.98 223.49L424.48 218.99C424.48 218.99 447.48 200.99 467.48 215.99C487.48 230.99 481.48 262.99 481.48 262.99L485.48 273.99C489.63 277.49 493.85 283.66 497.74 290.42Z" fill="black"/>
<path id="Vector_46" d="M427.48 217.99L449.48 270.99C449.48 270.99 451.48 286.99 461.48 295.99C461.48 295.99 476.48 311.99 478.48 320.99C480.48 329.99 508.48 353.99 508.48 353.99C508.48 353.99 534.48 377.99 536.48 386.99C536.48 386.99 560.48 393.99 557.48 407.99C557.48 407.99 575.48 389.99 557.48 372.99C539.48 355.99 515.48 320.99 515.48 320.99C515.48 320.99 501.48 283.99 488.48 272.99L484.48 261.99C484.48 261.99 490.48 229.99 470.48 214.99C450.48 199.99 427.48 217.99 427.48 217.99Z" fill="#DB8B8B"/>
<path id="Vector_47" opacity="0.1" d="M440.48 596.99L414.48 610.99L406.48 604.99V600.99C415.464 600.352 424.193 597.718 432.03 593.28C434.43 591.92 436.69 590.58 438.5 589.4C439.55 594.03 440.48 596.99 440.48 596.99Z" fill="black"/>
<path id="Vector_48" opacity="0.1" d="M470.48 175.99L484.48 230.99C484.48 230.99 441.48 237.99 432.48 230.99C423.48 223.99 406.48 221.99 406.48 221.99C406.48 221.99 424.48 169.99 434.48 163.99C444.48 157.99 470.48 175.99 470.48 175.99Z" fill="black"/>
<path id="Vector_49" d="M470.48 173.99L484.48 228.99C484.48 228.99 441.48 235.99 432.48 228.99C423.48 221.99 406.48 219.99 406.48 219.99C406.48 219.99 424.48 167.99 434.48 161.99C444.48 155.99 470.48 173.99 470.48 173.99Z" fill="#5C3838"/>
<path id="Vector_50" opacity="0.1" d="M541.85 148.49C539.049 152.356 535.487 155.609 531.383 158.047C527.278 160.485 522.718 162.058 517.983 162.669C513.248 163.28 508.439 162.915 503.85 161.598C499.261 160.281 494.99 158.039 491.3 155.01C490.062 151.75 489.128 148.382 488.51 144.95L536.51 136.95C536.51 136.95 542.26 135.34 541.85 148.49Z" fill="black"/>
<path id="Vector_51" d="M548.48 126.99C548.48 136.273 544.793 145.175 538.229 151.739C531.665 158.303 522.763 161.99 513.48 161.99C504.197 161.99 495.295 158.303 488.731 151.739C482.168 145.175 478.48 136.273 478.48 126.99C478.48 126.41 478.48 125.83 478.48 125.25C478.711 115.967 482.62 107.157 489.346 100.756C496.073 94.3555 505.067 90.8893 514.35 91.12C523.633 91.3508 532.443 95.2595 538.844 101.986C545.245 108.713 548.711 117.707 548.48 126.99Z" fill="#DB8B8B"/>
<path id="Vector_52" opacity="0.1" d="M548.48 126.99C548.483 130.216 548.039 133.426 547.16 136.53C544.455 137.12 541.633 136.861 539.08 135.79C535.34 134.32 532.13 131.79 528.54 129.97C518.43 124.85 506.4 125.86 495.2 127.55C489.64 128.39 483.33 129.17 478.96 125.63C478.81 125.511 478.666 125.385 478.53 125.25C478.761 115.967 482.67 107.157 489.396 100.756C496.123 94.3555 505.117 90.8893 514.4 91.12C523.683 91.3508 532.493 95.2595 538.894 101.986C545.295 108.713 548.761 117.707 548.53 126.99H548.48Z" fill="black"/>
<path id="Vector_53" opacity="0.05" d="M384.98 234.49C384.98 234.49 410.98 241.49 418.98 259.49C426.98 277.49 448.62 280.78 448.62 280.78" fill="black"/>
<path id="Vector_54" d="M482.98 630.49H422.98V649.49H482.98V630.49Z" fill="#535461"/>
<path id="Vector_55" d="M431.99 595.23C437.36 592.23 442.07 589.23 442.48 587.99C442.48 587.99 456.03 602.29 468.1 606.73C472.159 608.229 476.044 610.16 479.69 612.49C484.47 615.49 491.29 619.02 497.48 619.02C497.48 619.02 511.48 631.02 484.48 633.02C457.48 635.02 394.48 628.02 394.48 628.02L398.48 603.02C410.167 603.705 421.804 601 431.99 595.23Z" fill="#D1ABAB"/>
</g>
<g id="hat">
<path id="Vector_56" d="M456.624 106.927C458.754 113.607 468.984 113.817 474.234 118.737C476.964 121.297 478.234 125.077 481.234 127.357C485.404 130.537 491.424 129.837 496.734 129.077C507.424 127.557 518.904 126.647 528.544 131.257C531.964 132.887 535.034 135.167 538.604 136.497C542.174 137.827 546.604 137.987 549.504 135.627C551.824 133.737 552.674 130.627 554.774 128.547C556.404 126.907 558.674 125.987 560.534 124.547C564.614 121.467 566.374 116.447 567.534 111.647C569.934 101.767 570.624 91.1167 566.534 81.7467C562.444 72.3767 552.604 64.7467 541.864 65.2367C538.574 65.3867 535.364 66.2367 532.084 66.5967C523.534 67.4667 515.084 64.5967 506.504 64.1067C504.015 63.8039 501.49 64.1483 499.174 65.1067C497.427 66.0775 495.92 67.4273 494.764 69.0567C490.836 74.2021 488.146 80.1836 486.904 86.5367C485.904 91.3267 485.854 95.6667 479.984 96.4067C473.314 97.2867 452.114 92.7967 456.624 106.927Z" fill="#D52525"/>
</g>
</g>
</g>
<defs>
<linearGradient id="paint0_linear" x1="922.572" y1="124.502" x2="-175.428" y2="788.002" gradientUnits="userSpaceOnUse">
<stop stop-color="#CFABD8"/>
<stop offset="1" stop-color="#6C63FF" stop-opacity="0"/>
</linearGradient>
<clipPath id="clip0">
<rect width="1057.7" height="784.98" fill="white"/>
</clipPath>
</defs>
</svg>
