<svg width="651" height="673" viewBox="0 0 651 673" fill="none" xmlns="http://www.w3.org/2000/svg">
<g id="Group 1">
<path id="Vector" d="M469.166 64.2329C477.315 64.2329 483.921 57.6266 483.921 49.4774C483.921 41.3281 477.315 34.7218 469.166 34.7218C461.016 34.7218 454.41 41.3281 454.41 49.4774C454.41 57.6266 461.016 64.2329 469.166 64.2329Z" fill="#F1F1F1"/>
<path id="Vector_2" d="M382.166 635.233C390.315 635.233 396.921 628.627 396.921 620.477C396.921 612.328 390.315 605.722 382.166 605.722C374.016 605.722 367.41 612.328 367.41 620.477C367.41 628.627 374.016 635.233 382.166 635.233Z" fill="#F1F1F1"/>
<path id="Vector_3" d="M15.1656 206.233C23.3148 206.233 29.9211 199.627 29.9211 191.477C29.9211 183.328 23.3148 176.722 15.1656 176.722C7.01629 176.722 0.410004 183.328 0.410004 191.477C0.410004 199.627 7.01629 206.233 15.1656 206.233Z" fill="#F1F1F1"/>
<path id="Vector_4" d="M638.642 175.242L127.204 21.6639L3.8233 432.539L515.262 586.117L638.642 175.242Z" fill="#F1F1F1"/>
<path id="Vector_5" d="M332.165 141.893L453.305 190.858" stroke="#3F3D56" stroke-width="2" stroke-miterlimit="10"/>
<path id="Vector_6" d="M335.244 151.96L337.058 151.113L332.876 142.182L342.09 138.664L341.374 136.795L330.153 141.082L335.244 151.96Z" fill="#3F3D56"/>
<path id="Vector_7" d="M444.096 195.958L443.38 194.089L452.593 190.572L448.412 181.64L450.226 180.793L455.316 191.673L444.096 195.958Z" fill="#3F3D56"/>
<path id="Vector_8" d="M392.735 177.375C398.81 177.375 403.735 172.451 403.735 166.375C403.735 160.3 398.81 155.375 392.735 155.375C386.66 155.375 381.735 160.3 381.735 166.375C381.735 172.451 386.66 177.375 392.735 177.375Z" fill="#3F3D56"/>
<path id="Vector_9" d="M322.934 481.351L434.537 413.4" stroke="#3F3D56" stroke-width="2" stroke-miterlimit="10"/>
<path id="Vector_10" d="M332.848 484.891L333.251 482.93L323.59 480.953L326.268 471.461L324.341 470.919L321.082 482.48L332.848 484.891Z" fill="#3F3D56"/>
<path id="Vector_11" d="M433.13 423.833L431.203 423.291L433.882 413.801L424.22 411.822L424.624 409.862L436.391 412.274L433.13 423.833Z" fill="#3F3D56"/>
<path id="Vector_12" d="M378.735 458.375C384.81 458.375 389.735 453.451 389.735 447.375C389.735 441.3 384.81 436.375 378.735 436.375C372.66 436.375 367.735 441.3 367.735 447.375C367.735 453.451 372.66 458.375 378.735 458.375Z" fill="#3F3D56"/>
<path id="Vector_13" d="M182.716 266.044L182.755 396.706" stroke="#3F3D56" stroke-width="2" stroke-miterlimit="10"/>
<path id="Vector_14" d="M174.538 272.674L176.003 274.038L182.714 266.812L189.431 274.034L190.895 272.669L182.713 263.875L174.538 272.674Z" fill="#3F3D56"/>
<path id="Vector_15" d="M174.573 390.082L176.038 388.717L182.753 395.939L189.466 388.713L190.931 390.077L182.754 398.875L174.573 390.082Z" fill="#3F3D56"/>
<path id="Vector_16" d="M182.735 342.375C188.81 342.375 193.735 337.451 193.735 331.375C193.735 325.3 188.81 320.375 182.735 320.375C176.66 320.375 171.735 325.3 171.735 331.375C171.735 337.451 176.66 342.375 182.735 342.375Z" fill="#3F3D56"/>
<path id="Vector_17" d="M272 0H90V226H272V0Z" fill="#3F3D56"/>
<path id="Vector_18" d="M169.621 84.1345H128.317C125.499 67.8399 125.499 51.1824 128.317 34.8878H169.621C164.968 50.9736 164.968 68.0487 169.621 84.1345V84.1345Z" fill="#FF6584"/>
<path id="Vector_19" d="M192.379 109.112H233.683C236.501 92.8176 236.501 76.1601 233.683 59.8655H192.379C197.032 75.9513 197.032 93.0264 192.379 109.112V109.112Z" fill="#6C63FF"/>
<path id="Vector_20" d="M153.379 191.112H194.683C197.501 174.818 197.501 158.16 194.683 141.866H153.379C158.032 157.951 158.032 175.026 153.379 191.112V191.112Z" fill="#6C63FF"/>
<path id="Vector_21" d="M651 215H469V441H651V215Z" fill="#3F3D56"/>
<path id="Vector_22" d="M625 263H495V269H625V263Z" fill="#6C63FF"/>
<path id="Vector_23" d="M625 284H495V290H625V284Z" fill="#6C63FF"/>
<path id="Vector_24" d="M625 305H495V311H625V305Z" fill="#6C63FF"/>
<path id="Vector_25" d="M625 326H495V332H625V326Z" fill="#6C63FF"/>
<path id="Vector_26" d="M625 347H495V353H625V347Z" fill="#6C63FF"/>
<path id="Vector_27" d="M594 369H526V393H594V369Z" fill="#6C63FF"/>
<path id="Vector_28" d="M288 447H106V673H288V447Z" fill="#3F3D56"/>
<path id="Vector_29" d="M262.297 572.806H132.297V578.806H262.297V572.806Z" fill="#6C63FF"/>
<path id="Vector_30" d="M262.297 593.806H132.297V599.806H262.297V593.806Z" fill="#6C63FF"/>
<path id="Vector_31" d="M262.297 614.806H132.297V620.806H262.297V614.806Z" fill="#6C63FF"/>
<path id="Vector_32" d="M262.297 635.806H132.297V641.806H262.297V635.806Z" fill="#6C63FF"/>
<path id="Vector_33" opacity="0.3" d="M172.121 527.441H130.817C127.999 511.146 127.999 494.488 130.817 478.194H172.121C167.468 494.28 167.468 511.355 172.121 527.441V527.441Z" fill="#6C63FF"/>
<path id="Vector_34" opacity="0.3" d="M265.297 482.806H189.297V487.806H265.297V482.806Z" fill="#6C63FF"/>
<path id="Vector_35" opacity="0.3" d="M265.297 500.806H189.297V505.806H265.297V500.806Z" fill="#6C63FF"/>
<path id="Vector_36" opacity="0.3" d="M265.297 518.806H189.297V523.806H265.297V518.806Z" fill="#6C63FF"/>
<path id="Vector_37" opacity="0.3" d="M265.297 536.806H189.297V541.806H265.297V536.806Z" fill="#6C63FF"/>
</g>
</svg>
