<svg width="412" height="792" viewBox="0 0 412 792" fill="none" xmlns="http://www.w3.org/2000/svg">
<g id="logo">
<g id="Vector 2" style="mix-blend-mode:darken" filter="url(#filter0_d)">
<g id="Vector" style="mix-blend-mode:darken">
<path d="M136.501 2.5H397.001V64H136.501V2.5ZM136.501 2.5V64V2.5ZM136.501 2.5C17.7879 -6.02086 2.94009 33.1864 11.0007 132.5L136.501 2.5ZM136.501 2.5L136.5 78L136.501 2.5ZM136.501 64C43.0403 51.465 15.7155 66.6063 11.0007 132.5L136.501 64ZM11.0007 132.5C-27.9993 279 136.5 260.5 136.5 260.5L11.0007 132.5ZM11.0007 132.5C40.47 201.025 70.5493 208.025 136.501 192L11.0007 132.5ZM136.5 260.5H397.001H136.5ZM136.5 260.5C24.9602 264.641 -0.696771 292.966 11.0002 384L136.5 260.5ZM136.5 260.5L136.501 192L136.5 260.5ZM136.5 260.5L136.501 322.5L136.5 260.5ZM397.001 260.5V192H136.501L397.001 260.5ZM397.001 260.5L396.001 324L136.501 322.5L397.001 260.5ZM136.501 322.5C47.1996 315.062 15.2998 325.076 11.0002 384L136.501 322.5ZM136.501 322.5C136.501 322.5 208 340.5 331 384C454 427.5 136.501 589.5 136.501 589.5V322.5ZM136.501 322.5C136.501 322.5 333.002 343 397.001 384C461 425 200.5 589.5 200.5 589.5L136.501 322.5ZM136.501 455C226.031 454.958 396.001 455 396.001 455L397.001 516.5H136.501V455ZM136.501 455C46.9701 455.042 9.81998 455.614 11.0002 384L136.501 455ZM136.501 455V516.5V455ZM136.501 516.5C33.4018 512.938 6.3646 483.537 11.0002 384L136.501 516.5ZM136.501 589.5L331 783.5H397.001L200.5 589.5H136.501ZM136.501 589.5H200.5Z" fill="black"/>
<path d="M136.501 589.5H200.5M136.501 2.5H397.001V64H136.501V2.5ZM136.501 2.5V64V2.5ZM136.501 2.5C17.7879 -6.02086 2.94009 33.1864 11.0007 132.5L136.501 2.5ZM136.501 2.5L136.5 78L136.501 2.5ZM136.501 64C43.0403 51.465 15.7155 66.6063 11.0007 132.5L136.501 64ZM11.0007 132.5C-27.9993 279 136.5 260.5 136.5 260.5L11.0007 132.5ZM11.0007 132.5C40.47 201.025 70.5493 208.025 136.501 192L11.0007 132.5ZM136.5 260.5H397.001H136.5ZM136.5 260.5C24.9602 264.641 -0.696771 292.966 11.0002 384L136.5 260.5ZM136.5 260.5L136.501 192L136.5 260.5ZM136.5 260.5L136.501 322.5L136.5 260.5ZM397.001 260.5V192H136.501L397.001 260.5ZM397.001 260.5L396.001 324L136.501 322.5L397.001 260.5ZM136.501 322.5C47.1996 315.062 15.2998 325.076 11.0002 384L136.501 322.5ZM136.501 322.5C136.501 322.5 208 340.5 331 384C454 427.5 136.501 589.5 136.501 589.5V322.5ZM136.501 322.5C136.501 322.5 333.002 343 397.001 384C461 425 200.5 589.5 200.5 589.5L136.501 322.5ZM136.501 455C226.031 454.958 396.001 455 396.001 455L397.001 516.5H136.501V455ZM136.501 455C46.9701 455.042 9.81998 455.614 11.0002 384L136.501 455ZM136.501 455V516.5V455ZM136.501 516.5C33.4018 512.938 6.3646 483.537 11.0002 384L136.501 516.5ZM136.501 589.5L331 783.5H397.001L200.5 589.5H136.501Z" stroke="#E5E5E5"/>
</g>
</g>
</g>
<defs>
<filter id="filter0_d" x="0.52002" y="0.867615" width="411.1" height="791.132" filterUnits="userSpaceOnUse" color-interpolation-filters="sRGB">
<feFlood flood-opacity="0" result="BackgroundImageFix"/>
<feColorMatrix in="SourceAlpha" type="matrix" values="0 0 0 0 0 0 0 0 0 0 0 0 0 0 0 0 0 0 127 0"/>
<feOffset dy="4"/>
<feGaussianBlur stdDeviation="2"/>
<feColorMatrix type="matrix" values="0 0 0 0 0 0 0 0 0 0 0 0 0 0 0 0 0 0 0.25 0"/>
<feBlend mode="normal" in2="BackgroundImageFix" result="effect1_dropShadow"/>
<feBlend mode="normal" in="SourceGraphic" in2="effect1_dropShadow" result="shape"/>
</filter>
</defs>
</svg>
